<svg width="56" height="56" viewBox="0 0 56 56" fill="none" xmlns="http://www.w3.org/2000/svg">
<rect width="56" height="56" rx="12" fill="white"/>
<path d="M38.0312 27.6023L47.9852 23.4051C48.5292 23.1758 48.7571 22.5277 48.4765 22.0084L43.6363 13.0496C43.3489 12.5178 42.6591 12.3605 42.1696 12.7153L32.6523 19.6136M38.0312 27.6023L31.933 30.1736C29.7869 31.0785 29.4456 33.9773 31.3229 35.3559L42.168 43.3202C42.6573 43.6795 43.3512 43.5235 43.6397 42.9895L48.5087 33.9776C48.7774 33.4803 48.5808 32.8593 48.0749 32.6072L38.0312 27.6023ZM32.6523 19.6136L28.5854 22.5614C26.7503 23.8916 24.1597 22.7846 23.8525 20.5391L22.1554 8.13556C22.0732 7.53499 22.54 7 23.1461 7H32.7163C33.3048 7 33.766 7.50561 33.7121 8.09159L32.6523 19.6136Z" stroke="black" stroke-width="3"/>
<path d="M33.282 45L33.6587 48.0175C33.7338 48.6188 33.2611 49.1482 32.6551 49.1413L23.1712 49.034C22.5829 49.0273 22.1274 48.5167 22.1878 47.9315L23.1428 38.668C23.2309 37.8127 22.2701 37.2523 21.5691 37.7501L13.853 43.2293C13.3591 43.58 12.6693 43.4146 12.3882 42.8781L7.68991 33.911C7.41644 33.389 7.65127 32.745 8.1965 32.5215L16.1128 29.2775C16.9026 28.9539 16.9499 27.8532 16.1909 27.4629L15.5 27.1076L8.21058 23.3592C7.70888 23.1012 7.51977 22.4795 7.79284 21.9858L12.7222 13.0745C13.0166 12.5423 13.714 12.3939 14.1995 12.7603L16.5 14.4959" stroke="black" stroke-width="3" stroke-linecap="round"/>
</svg>
